<svg height="100" viewBox="0 0 16 16" width="100" xmlns="http://www.w3.org/2000/svg"><path d="m7.695313 3.019531c-.828125-.007812-1.453125.03125-1.976563.300782-.214844.109375-.367187.25-.484375.414062-.0625.082031-.121094.15625-.148437.328125-.015625.082031-.027344.21875.058593.367188.085938.152343.269532.253906.394532.273437.09375.011719.292968.09375.328125.140625.082031.117188.113281.203125.125.25.011718.046875.007812.015625.007812.015625v.046875s.03125.492188.011719 1c-.011719.25-.035156.511719-.074219.6875-.039062.175781-.136719.21875.003906.136719-.097656.058594-.0625.082031-.183593.019531-.125-.058594-.449219-.332031-.875-1.097656-.425782-.769531-.734375-1.167969-.804688-1.253906-.027344-.078125-.09375-.238282-.320312-.414063-.292969-.226562-.59375-.230469-.59375-.230469l-.027344-.003906h-2.183594s-.125.003906-.269531.035156-.351563.066407-.546875.308594h-.003906c-.1992193.253906-.164063.484375-.148438.625.01953125.144531.0625.257813.0625.257813l.0078125.023437.0117188.023438s1.6679687 3.558593 3.6601567 5.726562c1.871093 2.039063 4.039062 2 4.039062 2h1.230469l.027344-.003906s.394531.019531.726562-.351563c.167969-.191406.207031-.371093.226563-.503906.023437-.136719.023437-.246094.023437-.246094v.03125s.015625-.257812.085938-.527343c.035156-.132813.085937-.265625.132812-.339844.023438-.042969.023438-.03125.03125-.042969.085938.0625.226563.207031.375.390625.304688.363281.648438.867188 1.128906 1.214844.347657.246094.675782.355469.925782.394531.167968.027344.289062.023438.371093.015625l1.699219-.03125h.015625s.351563-.007812.703125-.230469c.171875-.109375.371094-.308593.4375-.59375.070313-.285156-.007812-.59375-.171875-.878906.054688.097656-.011719-.03125-.0625-.132812-.050781-.101563-.128906-.238282-.246094-.410157-.226562-.335937-.601562-.808593-1.222656-1.410156-.292969-.28125-.480469-.4375-.597656-.546875.035156-.050781.039062-.054687.171875-.210937.210937-.246094.519531-.609375.910156-1.152344.46875-.65625.808594-1.191406 1.027344-1.636719.21875-.441406.394531-.808594.199219-1.261719-.105469-.246093-.292969-.339843-.429688-.398437-.140625-.058594-.265625-.082031-.382812-.101563-.230469-.035156-.433594-.035156-.433594-.035156l-1.980469.015625c-.058594-.011719-.285156-.054687-.578125.132813-.289062.179687-.355469.371093-.371094.429687-.046875.066406-.375.53125-.832031 1.34375-.460937.820313-.773437 1.042969-.8125 1.0625-.011719-.011719.011719-.007812-.042969-.039062-.023437-.019532-.046875-.035157-.066406-.246094-.015625-.210938.003906-.542969.003906-.933594 0-.839844.074219-1.277344.03125-1.695312-.019531-.210938-.105468-.46875-.292968-.640625-.1875-.167969-.390625-.230469-.601563-.285157-.332031-.082031-.78125-.117187-1.429687-.125zm-.007813 1c.605469.007813 1.03125.054688 1.1875.09375.132813.035157.152344.050782.148438.042969v.015625c.015625.167969-.035157.707031-.035157 1.59375 0 .347656-.027343.683594 0 1.019531.027344.335938.148438.746094.503907.988282h.003906c-.042969-.027344.449219.339843.917969.171875.46875-.171875.839843-.601563 1.367187-1.535157.460938-.828125.800781-1.292968.800781-1.292968l.03125-.046875.023438-.046875s-.007813-.003907 0-.007813l2.03125-.015625s.140625 0 .277344.023438h.011718c-.019531.007812-.003906.058593-.140625.335937-.175781.355469-.492187.863281-.941406 1.492188-.371094.511718-.648437.84375-.855469 1.085937-.207031.238281-.363281.351563-.464843.664063-.050782.152343-.039063.378906.035156.53125.070312.148437.15625.230468.242187.3125.171875.164062.375.324218.671875.617187.582032.5625.910157.976563 1.09375 1.25.09375.140625.148438.238281.183594.308594.035156.070312.011719.042969.089844.175781.066406.121094.054687.136719.054687.128906-.066406.039063-.234375.074219-.238281.074219l-1.699219.03125-.046875.011719s.003907.003906-.101562-.011719c-.109375-.019531-.28125-.066406-.5-.222656-.269531-.191406-.609375-.636719-.945313-1.042969-.164062-.199219-.332031-.394531-.542968-.550781-.210938-.15625-.542969-.300781-.882813-.1875-.292969.09375-.484375.308594-.605469.507812-.121093.203125-.191406.414063-.246093.605469-.101563.386719-.117188.734375-.117188.734375v.03125s0 .023438-.007812.058594c-.019532.007812-.046875.027344-.0625.035156h-1.195313s-1.652344.085938-3.273437-1.671875c-1.734375-1.894531-3.277344-5.0625-3.40625-5.328125h2.011718c.019532.007813.089844.035156.082032.03125-.046875-.039062.023437.046875.023437.046875l.03125.074219.054688.0625s.308593.375.75 1.171875c.472656.855469.871093 1.300781 1.316406 1.515625.445312.214844.914062.0625 1.113281-.050781.371094-.214844.414063-.515625.476563-.792969s.082031-.574219.09375-.863281c.023437-.554688-.007813-1.027344-.007813-1.0625-.003906-.011719-.003906-.148438-.042969-.296875-.042968-.152344-.121093-.351563-.269531-.5625-.0625-.085938-.121094-.042969-.1875-.105469.277344-.078125.574219-.15625 1.1875-.148438z"/></svg>