<svg viewBox="0 0 512 512" xmlns="http://www.w3.org/2000/svg" width="32" height="32"><path stroke="currentColor" fill="currentColor" d="m256 501-123.2-267.9c-10.4-19.8-21.8-45.9-21.8-76.1 0-80.3 65.2-146 145-146s145 65.7 145 146c0 30.2-11.4 56.3-21.7 76.1v1zm-104.6-275.2 104.6 228.3 105.6-229.4c9.3-17.7 19.7-40.7 19.7-67.8 0-69.9-55.9-126.1-125.3-126.1s-125.3 56.3-125.3 126.2c0 27.1 10.4 50 19.7 67.8zm104.6 23.9c-50.8 0-92.2-41.7-92.2-92.8s41.4-92.8 92.2-92.8 92.2 41.7 92.2 92.8-41.4 92.8-92.2 92.8zm0-165.7c-40.4 0-72.5 32.3-72.5 73s32.1 73 72.5 73 72.5-32.3 72.5-73-32.1-73-72.5-73z"/></svg>
